<svg xmlns="http://www.w3.org/2000/svg" xmlns:xlink="http://www.w3.org/1999/xlink" width="56.9645" height="35.400000000000006"><path fill="#fff" d="M8.56 8.14L13.07 8.14L13.07 28.03L14.54 28.03L14.54 6.93L7.29 6.93C7.29 7.73 7.23 16.05 6.64 22.60C6.40 25.43 5.87 26.73 4.66 26.73C4.45 26.73 4.34 26.70 4.34 26.70L4.43 28.08C4.43 28.08 4.57 28.14 4.93 28.14C6.73 28.14 7.64 26.58 7.97 22.72C8.53 16.02 8.56 8.76 8.56 8.14ZM20.74 27.20C19.32 27.20 18.41 25.99 18.41 23.90C18.41 21.30 19.59 20.18 22.04 20.18L23.63 20.18L23.63 24.28C23.10 25.87 22.13 27.20 20.74 27.20ZM24.04 28.03L25.31 28.03C25.13 27.46 24.99 26.31 24.99 25.28L24.99 17.17C24.99 14.22 23.60 12.86 21.15 12.86C19.47 12.86 18.23 13.60 17.64 14.37L18.02 15.69C18.73 14.66 19.88 14.07 21.15 14.07C22.77 14.07 23.63 15.05 23.63 17.32L23.63 19.18L22.01 19.18C18.79 19.18 17.05 20.83 17.05 24.01C17.05 26.73 18.44 28.32 20.44 28.32C21.92 28.32 22.98 27.44 23.69 26.02C23.78 27.08 23.92 27.64 24.04 28.03ZM31.36 28.03C34.16 28.03 36.02 26.67 36.02 23.75C36.02 21.95 35.16 20.71 33.25 20.15C34.69 19.50 35.34 18.26 35.34 16.76C35.34 14.40 33.92 13.16 31.30 13.16L28.17 13.16L28.17 28.03ZM31.24 14.25C32.95 14.25 34.01 14.93 34.01 16.82C34.01 18.88 32.86 19.77 31.24 19.77L29.53 19.77L29.53 14.25ZM31.33 20.80C33.48 20.80 34.63 21.68 34.63 23.84C34.63 26.14 33.28 26.96 31.36 26.96L29.53 26.96L29.53 20.80ZM39.88 20.33L45.05 28.03L46.58 28.03L41.33 20.06L46.23 13.16L44.87 13.16L39.88 20.15L39.88 13.16L38.50 13.16L38.50 28.03L39.88 28.03ZM51.18 27.20C49.77 27.20 48.85 25.99 48.85 23.90C48.85 21.30 50.03 20.18 52.48 20.18L54.07 20.18L54.07 24.28C53.54 25.87 52.57 27.20 51.18 27.20ZM54.49 28.03L55.76 28.03C55.58 27.46 55.43 26.31 55.43 25.28L55.43 17.17C55.43 14.22 54.04 12.86 51.60 12.86C49.91 12.86 48.67 13.60 48.09 14.37L48.47 15.69C49.18 14.66 50.33 14.07 51.60 14.07C53.22 14.07 54.07 15.05 54.07 17.32L54.07 19.18L52.45 19.18C49.24 19.18 47.49 20.83 47.49 24.01C47.49 26.73 48.88 28.32 50.89 28.32C52.36 28.32 53.42 27.44 54.13 26.02C54.22 27.08 54.37 27.64 54.49 28.03Z"/></svg>