<?xml version="1.0" encoding="utf-8"?>
<!-- Generator: Adobe Illustrator 23.0.1, SVG Export Plug-In . SVG Version: 6.00 Build 0)  -->
<svg version="1.1" id="Layer_1" xmlns="http://www.w3.org/2000/svg" xmlns:xlink="http://www.w3.org/1999/xlink" x="0px" y="0px"
	 viewBox="0 0 62.8 13.7" style="enable-background:new 0 0 62.8 13.7;" xml:space="preserve">
<g>
	<path d="M7.8,3.6C7.2,3.1,6.7,3,6.5,3c-0.3,0-0.6,0-0.8,0.3C5.6,3.4,5.5,3.6,5.5,3.8c0,0.2,0.1,0.3,0.2,0.4c0.2,0.2,0.5,0.3,1,0.5
		l0.6,0.2C7.6,5.1,8,5.2,8.4,5.5C8.8,6,8.9,6.6,8.9,7c0,0.8-0.3,1.5-0.7,2C7.5,9.7,6.5,9.8,6,9.8c-0.6,0-1.1-0.1-1.6-0.3
		C4,9.3,3.5,8.9,3.2,8.6l1-1.3c0.2,0.2,0.5,0.5,0.7,0.6c0.3,0.2,0.6,0.3,1,0.3c0.2,0,0.6,0,0.8-0.3C6.9,7.8,7,7.6,7,7.3
		C7,7,6.9,6.8,6.8,6.7C6.6,6.5,6.1,6.3,5.8,6.2L5.2,6C4.8,5.9,4.4,5.7,4.1,5.4C3.6,4.9,3.6,4.4,3.6,4c0-0.7,0.2-1.3,0.7-1.8
		c0.6-0.6,1.2-0.7,2-0.7c0.6,0,1.4,0.1,2.4,0.8L7.8,3.6z"/>
	<path d="M11.7,4.3v3c0,0.2,0,0.6,0.3,0.9c0.1,0.1,0.3,0.3,0.7,0.3c0.3,0,0.6-0.1,0.7-0.3c0.3-0.2,0.3-0.6,0.3-0.9v-3h1.7v3.1
		c0,0.6-0.1,1.2-0.6,1.7c-0.6,0.6-1.5,0.7-2.1,0.7c-0.7,0-1.5-0.1-2.2-0.7c-0.5-0.5-0.6-1-0.6-1.6V4.3H11.7z"/>
	<path d="M18.5,12.4h-1.7V4.3h1.7v0.6c0.6-0.7,1.3-0.8,1.7-0.8c1,0,1.6,0.4,1.9,0.8c0.5,0.5,0.8,1.2,0.8,2.1c0,0.9-0.3,1.6-0.9,2.1
		c-0.5,0.5-1.1,0.7-1.8,0.7c-1.1,0-1.5-0.5-1.7-0.8V12.4z M18.8,6c-0.3,0.3-0.4,0.7-0.4,1c0,0.3,0.1,0.7,0.4,0.9
		c0.3,0.3,0.6,0.4,1,0.4c0.3,0,0.7-0.1,0.9-0.4c0.3-0.3,0.4-0.7,0.4-1c0-0.4-0.2-0.7-0.4-1c-0.3-0.2-0.6-0.4-0.9-0.4
		C19.3,5.6,19,5.8,18.8,6z"/>
	<path d="M29.4,7.3h-4c0,0.3,0.1,0.7,0.3,0.9c0.3,0.3,0.6,0.3,0.9,0.3c0.3,0,0.5,0,0.7-0.2c0,0,0.2-0.1,0.4-0.4l1.6,0.2
		c-0.2,0.8-0.7,1.2-1,1.3c-0.5,0.3-1.1,0.4-1.7,0.4c-0.8,0-1.5-0.1-2.1-0.8C24,8.6,23.6,7.9,23.6,7c0-0.8,0.3-1.6,0.8-2.1
		c0.6-0.6,1.5-0.8,2.1-0.8c0.6,0,1.5,0.1,2.1,0.8c0.6,0.7,0.8,1.5,0.8,2.2V7.3z M27.8,6.2c0,0-0.1-0.4-0.3-0.6
		c-0.2-0.2-0.5-0.3-0.8-0.3c-0.4,0-0.7,0.2-0.9,0.3c-0.1,0.1-0.3,0.3-0.3,0.6H27.8z"/>
	<path d="M30.4,4.3h1.7v0.8c0.2-0.3,0.4-0.6,0.7-0.7c0.3-0.2,0.6-0.2,0.9-0.2c0.2,0,0.4,0,0.6,0.1l-0.1,1.6
		c-0.2-0.1-0.5-0.2-0.8-0.2c-0.4,0-0.6,0.1-0.9,0.4c-0.4,0.4-0.4,1-0.4,1.4v2.2h-1.7V4.3z"/>
</g>
<g>
	<path d="M40.7,3c-0.5-1-1.4-1-1.6-1c-0.9,0-1.5,0.7-1.5,1.5c0,0.9,0.6,1.2,1.4,1.5c0.8,0.4,1.2,0.6,1.6,0.8
		c0.3,0.2,0.9,0.7,0.9,1.5c0,1.3-1.1,2.3-2.5,2.3c-1,0-1.6-0.5-1.9-0.8c-0.3-0.4-0.4-0.7-0.5-0.9l0.5-0.2c0.1,0.3,0.3,0.6,0.4,0.8
		c0.4,0.5,0.9,0.7,1.5,0.7c1.1,0,1.9-0.8,1.9-1.8c0-0.4-0.2-0.9-0.8-1.3c-0.2-0.1-0.7-0.4-1.4-0.7c-0.8-0.4-1.2-0.6-1.5-1.1
		c-0.2-0.3-0.3-0.6-0.3-0.9c0-0.9,0.6-2,2.1-2c0.8,0,1.5,0.4,1.9,1.1L40.7,3z"/>
	<path d="M43.4,5.2v4.4h-0.5V5.2h-0.5V4.7h0.5V3h0.5v1.8h0.9v0.5H43.4z"/>
	<path d="M49.9,7.2c0,1.5-1.1,2.6-2.6,2.6s-2.6-1.1-2.6-2.6s1.1-2.6,2.6-2.6S49.9,5.8,49.9,7.2z M49.4,7.2c0-1.2-0.9-2.1-2.1-2.1
		c-1.2,0-2.1,0.9-2.1,2.1s0.9,2.1,2.1,2.1C48.5,9.3,49.4,8.4,49.4,7.2z"/>
	<path d="M51.2,4.7h0.5v0.6c0.2-0.4,0.6-0.7,1.1-0.7c0.1,0,0.3,0,0.5,0.1L53,5.2c0,0-0.1-0.1-0.4-0.1c-1,0-1,1.3-1,1.9v2.6h-0.5V4.7
		z"/>
	<path d="M54.1,7.3c0,1.2,0.9,2.1,1.9,2.1c0.8,0,1.4-0.5,1.7-1.1l0.4,0.2C57.8,9,57.2,9.8,56,9.8c-1.5,0-2.4-1.1-2.4-2.6
		c0-1.7,1.2-2.6,2.4-2.6c1.3,0,2.3,1.1,2.3,2.6H54.1z M57.8,6.8c-0.1-1-0.8-1.7-1.8-1.7c-1,0-1.7,0.8-1.8,1.7H57.8z"/>
</g>
</svg>
