<?xml version="1.0" encoding="utf-8"?>
<!-- Generator: Adobe Illustrator 23.0.1, SVG Export Plug-In . SVG Version: 6.00 Build 0)  -->
<svg version="1.1" id="Layer_1" xmlns="http://www.w3.org/2000/svg" xmlns:xlink="http://www.w3.org/1999/xlink" x="0px" y="0px"
	 viewBox="0 0 340.2 226.8" style="enable-background:new 0 0 340.2 226.8;" xml:space="preserve">
<style type="text/css">
	.st0{fill:#FFFFFF;}
</style>
<g>
	<path class="st0" d="M134.9,135.6c-0.6-0.5-1.1-0.6-1.3-0.6c-0.3,0-0.6,0-0.8,0.3c-0.1,0.1-0.2,0.3-0.2,0.5c0,0.2,0.1,0.3,0.2,0.4
		c0.2,0.2,0.5,0.3,1,0.5l0.6,0.2c0.3,0.1,0.8,0.3,1.1,0.6c0.5,0.4,0.6,1,0.6,1.5c0,0.8-0.3,1.5-0.7,2c-0.7,0.7-1.7,0.8-2.3,0.8
		c-0.6,0-1.1-0.1-1.6-0.3c-0.4-0.2-0.9-0.6-1.2-0.9l1-1.3c0.2,0.2,0.5,0.5,0.7,0.6c0.3,0.2,0.6,0.3,1,0.3c0.2,0,0.6,0,0.8-0.3
		c0.2-0.1,0.3-0.3,0.3-0.6c0-0.3-0.1-0.4-0.3-0.6c-0.2-0.2-0.7-0.4-0.9-0.4l-0.7-0.2c-0.4-0.1-0.8-0.3-1.1-0.6
		c-0.4-0.4-0.5-1-0.5-1.4c0-0.7,0.2-1.3,0.7-1.8c0.6-0.6,1.2-0.7,2-0.7c0.6,0,1.4,0.1,2.4,0.8L134.9,135.6z"/>
	<path class="st0" d="M138.8,136.3v3c0,0.2,0,0.6,0.3,0.9c0.1,0.1,0.3,0.3,0.7,0.3c0.3,0,0.6-0.1,0.7-0.3c0.3-0.2,0.3-0.6,0.3-0.9
		v-3h1.7v3.1c0,0.6-0.1,1.2-0.6,1.7c-0.6,0.6-1.5,0.7-2.1,0.7c-0.7,0-1.5-0.1-2.2-0.7c-0.5-0.5-0.6-1-0.6-1.6v-3.2H138.8z"/>
	<path class="st0" d="M145.6,144.4h-1.7v-8.1h1.7v0.6c0.6-0.7,1.3-0.8,1.7-0.8c1,0,1.6,0.4,1.9,0.8c0.5,0.5,0.8,1.2,0.8,2.1
		c0,0.9-0.3,1.6-0.9,2.1c-0.5,0.5-1.1,0.7-1.8,0.7c-1.1,0-1.5-0.5-1.7-0.8V144.4z M145.9,138c-0.3,0.3-0.4,0.7-0.4,1
		c0,0.3,0.1,0.7,0.4,0.9c0.3,0.3,0.6,0.4,1,0.4c0.3,0,0.7-0.1,0.9-0.4c0.3-0.3,0.4-0.7,0.4-1c0-0.4-0.2-0.7-0.4-1
		c-0.3-0.2-0.6-0.4-0.9-0.4C146.3,137.6,146,137.8,145.9,138z"/>
	<path class="st0" d="M156.4,139.3h-4c0,0.3,0.1,0.7,0.3,0.9c0.3,0.3,0.6,0.3,0.9,0.3c0.3,0,0.5,0,0.7-0.2c0,0,0.2-0.1,0.4-0.4
		l1.6,0.2c-0.2,0.8-0.7,1.2-1,1.3c-0.5,0.3-1.1,0.4-1.7,0.4c-0.8,0-1.5-0.1-2.1-0.8c-0.5-0.5-0.8-1.2-0.8-2.1c0-0.8,0.3-1.6,0.8-2.1
		c0.6-0.6,1.5-0.8,2.1-0.8c0.6,0,1.5,0.1,2.1,0.8c0.6,0.7,0.8,1.5,0.8,2.2V139.3z M154.8,138.2c0,0-0.1-0.4-0.3-0.6
		c-0.2-0.2-0.5-0.3-0.8-0.3c-0.4,0-0.7,0.2-0.9,0.3c-0.1,0.1-0.3,0.3-0.3,0.6H154.8z"/>
	<path class="st0" d="M157.5,136.3h1.7v0.8c0.2-0.3,0.4-0.6,0.7-0.7c0.3-0.2,0.6-0.2,0.9-0.2c0.2,0,0.4,0,0.6,0.1l-0.1,1.6
		c-0.2-0.1-0.5-0.2-0.8-0.2c-0.4,0-0.6,0.1-0.9,0.4c-0.4,0.4-0.4,1-0.4,1.4v2.2h-1.7V136.3z"/>
</g>
<g>
	<path class="st0" d="M167.8,135c-0.5-1-1.4-1-1.6-1c-0.9,0-1.5,0.7-1.5,1.5c0,0.9,0.6,1.2,1.4,1.5c0.8,0.4,1.2,0.6,1.6,0.8
		c0.3,0.2,0.9,0.7,0.9,1.5c0,1.3-1.1,2.3-2.5,2.3c-1,0-1.6-0.5-1.9-0.8c-0.3-0.4-0.4-0.7-0.5-0.9l0.5-0.2c0.1,0.3,0.3,0.6,0.4,0.8
		c0.4,0.5,0.9,0.7,1.5,0.7c1.1,0,1.9-0.8,1.9-1.8c0-0.4-0.2-0.9-0.8-1.3c-0.2-0.1-0.7-0.4-1.4-0.7c-0.8-0.4-1.2-0.6-1.5-1.1
		c-0.2-0.3-0.3-0.6-0.3-0.9c0-0.9,0.6-2,2.1-2c0.8,0,1.5,0.4,1.9,1.1L167.8,135z"/>
	<path class="st0" d="M170.5,137.2v4.4H170v-4.4h-0.5v-0.5h0.5V135h0.5v1.8h0.9v0.5H170.5z"/>
	<path class="st0" d="M176.9,139.2c0,1.5-1.1,2.6-2.6,2.6s-2.6-1.1-2.6-2.6s1.1-2.6,2.6-2.6S176.9,137.8,176.9,139.2z M176.4,139.2
		c0-1.2-0.9-2.1-2.1-2.1c-1.2,0-2.1,0.9-2.1,2.1s0.9,2.1,2.1,2.1C175.5,141.3,176.4,140.4,176.4,139.2z"/>
	<path class="st0" d="M178.2,136.8h0.5v0.6c0.2-0.4,0.6-0.7,1.1-0.7c0.1,0,0.3,0,0.5,0.1l-0.2,0.4c0,0-0.1-0.1-0.4-0.1
		c-1,0-1,1.3-1,1.9v2.6h-0.5V136.8z"/>
	<path class="st0" d="M181.2,139.3c0,1.2,0.9,2.1,1.9,2.1c0.8,0,1.4-0.5,1.7-1.1l0.4,0.2c-0.3,0.6-0.9,1.3-2.1,1.3
		c-1.5,0-2.4-1.1-2.4-2.6c0-1.7,1.2-2.6,2.4-2.6c1.3,0,2.3,1.1,2.3,2.6H181.2z M184.8,138.8c-0.1-1-0.8-1.7-1.8-1.7
		c-1,0-1.7,0.8-1.8,1.7H184.8z"/>
</g>
</svg>
