<svg xmlns="http://www.w3.org/2000/svg" xmlns:xlink="http://www.w3.org/1999/xlink" width="63.9855" height="35.400000000000006"><path fill="#fff" d="M8.70 19.94L8.70 28.03L10.97 28.03L10.97 6.93L7.58 6.93C4.25 6.93 1.45 9.14 1.45 13.57C1.45 16.73 2.68 18.44 4.54 19.38L0.59 28.03L3.22 28.03L6.81 19.94ZM8.70 18.05L7.49 18.05C5.52 18.05 3.89 16.96 3.89 13.57C3.89 10.06 5.66 8.85 7.49 8.85L8.70 8.85ZM33.75 26.14L32.57 26.14L32.57 13.16L25.67 13.16L25.67 14.43C25.67 18.38 25.52 22.98 24.16 26.14L23.25 26.14L23.25 30.95L25.31 30.95L25.31 28.03L31.68 28.03L31.68 30.95L33.75 30.95ZM43.75 27.02L43.22 25.25C42.63 25.67 41.59 26.26 40.30 26.26C38.47 26.26 37.52 24.49 37.52 21.12L43.72 21.12L43.72 19.85C43.72 14.81 42.10 12.95 39.62 12.95C36.46 12.95 35.13 16.43 35.13 21.21C35.13 25.78 37.02 28.23 40.09 28.23C41.57 28.23 42.80 27.76 43.75 27.02ZM19.65 13.16L19.65 19.47L16.23 19.47L16.23 13.16L13.92 13.16L13.92 28.03L16.23 28.03L16.23 21.36L19.65 21.36L19.65 28.03L21.92 28.03L21.92 13.16ZM52.30 28.03L54.81 28.03L50.59 20.15L54.28 13.16L51.95 13.16L48.38 20.03L48.38 13.16L46.08 13.16L46.08 28.03L48.38 28.03L48.38 20.62ZM60.21 28.23C61.57 28.23 62.51 27.79 63.31 27.11L62.78 25.40C62.25 25.87 61.39 26.31 60.27 26.31C58.41 26.31 57.53 24.19 57.53 20.47C57.53 16.73 58.70 14.87 60.36 14.87C61.30 14.87 62.19 15.37 62.81 15.90L63.13 13.72C62.48 13.30 61.71 12.95 60.39 12.95C56.91 12.95 55.11 15.93 55.11 20.59C55.11 25.67 57.02 28.23 60.21 28.23ZM30.30 26.14L26.34 26.14C27.58 22.98 27.73 18.41 27.73 15.28L27.73 15.02L30.30 15.02ZM39.62 14.84C40.95 14.84 41.36 16.70 41.36 19.23L37.55 19.23C37.70 16.58 38.20 14.84 39.62 14.84Z"/></svg>